<svg width="1280" height="720" xmlns="http://www.w3.org/2000/svg" xmlns:xlink="http://www.w3.org/1999/xlink" overflow="hidden"><defs><clipPath id="clip0"><rect x="0" y="0" width="1280" height="720"/></clipPath><clipPath id="clip1"><rect x="729" y="114" width="96" height="96"/></clipPath><clipPath id="clip2"><rect x="729" y="114" width="96" height="96"/></clipPath><clipPath id="clip3"><rect x="729" y="114" width="96" height="96"/></clipPath><clipPath id="clip4"><rect x="67" y="99" width="96" height="96"/></clipPath><clipPath id="clip5"><rect x="67" y="99" width="96" height="96"/></clipPath><clipPath id="clip6"><rect x="67" y="99" width="96" height="96"/></clipPath><clipPath id="clip7"><rect x="717" y="522" width="96" height="96"/></clipPath><clipPath id="clip8"><rect x="717" y="522" width="96" height="96"/></clipPath><clipPath id="clip9"><rect x="717" y="522" width="96" height="96"/></clipPath></defs><g clip-path="url(#clip0)"><rect x="0" y="0" width="1280" height="720" fill="#FFFFFF"/><path d="M72.5001 241.4C72.5001 235.932 76.9324 231.5 82.3999 231.5L459.6 231.5C465.068 231.5 469.5 235.932 469.5 241.4L469.5 320.6C469.5 326.068 465.068 330.5 459.6 330.5L82.3999 330.5C76.9324 330.5 72.5001 326.068 72.5001 320.6Z" stroke="#FFFFFF" stroke-width="1.33333" stroke-miterlimit="8" fill="#4472C4" fill-rule="evenodd"/><text fill="#FFFFFF" font-family="Calibri,Calibri_MSFontService,sans-serif" font-weight="400" font-size="24" transform="translate(84.9832 264)">Preparation for Robot deployer</text><path d="M153.5 317.9C153.5 306.633 162.633 297.5 173.9 297.5L530.1 297.5C541.367 297.5 550.5 306.633 550.5 317.9L550.5 481.1C550.5 492.367 541.367 501.5 530.1 501.5L173.9 501.5C162.633 501.5 153.5 492.367 153.5 481.1Z" stroke="#4472C4" stroke-width="1.33333" stroke-miterlimit="8" fill="#FFFFFF" fill-rule="evenodd" fill-opacity="0.901961"/><text font-family="Calibri,Calibri_MSFontService,sans-serif" font-weight="400" font-size="20" transform="translate(170.107 331)">•</text><text font-family="Calibri,Calibri_MSFontService,sans-serif" font-weight="400" font-size="20" transform="translate(182.107 331)">Create Azure account and set up IoT Hub</text><text font-family="Calibri,Calibri_MSFontService,sans-serif" font-weight="400" font-size="20" transform="translate(170.107 356)">•</text><text font-family="Calibri,Calibri_MSFontService,sans-serif" font-weight="400" font-size="20" transform="translate(182.107 356)">Prepare X509 certs and upload to Key Vault</text><text font-family="Calibri,Calibri_MSFontService,sans-serif" font-weight="400" font-size="20" transform="translate(170.107 382)">•</text><text font-family="Calibri,Calibri_MSFontService,sans-serif" font-weight="400" font-size="20" transform="translate(182.107 382)">Prepare deployment manifest</text><text font-family="Calibri,Calibri_MSFontService,sans-serif" font-weight="400" font-size="20" transform="translate(170.107 408)">•</text><text font-family="Calibri,Calibri_MSFontService,sans-serif" font-weight="400" font-size="20" transform="translate(182.107 408)">Update environment file with required</text><text font-family="Calibri,Calibri_MSFontService,sans-serif" font-weight="400" font-size="20" transform="translate(182.107 429)">env</text><text font-family="Calibri,Calibri_MSFontService,sans-serif" font-weight="400" font-size="20" transform="translate(211.267 429)">-</text><text font-family="Calibri,Calibri_MSFontService,sans-serif" font-weight="400" font-size="20" transform="translate(217.387 429)">variables</text><text font-family="Calibri,Calibri_MSFontService,sans-serif" font-weight="400" font-size="20" transform="translate(170.107 455)">•</text><text font-family="Calibri,Calibri_MSFontService,sans-serif" font-weight="400" font-size="20" transform="translate(182.107 455)">Prepare edge device (VM and its SSH key</text><text font-family="Calibri,Calibri_MSFontService,sans-serif" font-weight="400" font-size="20" transform="translate(182.107 477)">for PoC/Physical PC for Production)</text><path d="M529 234.8 607.5 234.8 607.5 215 657 264.5 607.5 314 607.5 294.2 529 294.2Z" fill="#B0BCDE" fill-rule="evenodd"/><path d="M710.5 241.4C710.5 235.932 714.932 231.5 720.4 231.5L1097.6 231.5C1103.07 231.5 1107.5 235.932 1107.5 241.4L1107.5 320.6C1107.5 326.068 1103.07 330.5 1097.6 330.5L720.4 330.5C714.932 330.5 710.5 326.068 710.5 320.6Z" stroke="#FFFFFF" stroke-width="1.33333" stroke-miterlimit="8" fill="#4472C4" fill-rule="evenodd"/><text fill="#FFFFFF" font-family="Calibri,Calibri_MSFontService,sans-serif" font-weight="400" font-size="21" transform="translate(721.798 261)">Provisioning: Setup and Register Edge PC</text><text fill="#FFFFFF" font-family="Calibri,Calibri_MSFontService,sans-serif" font-weight="400" font-size="21" transform="translate(721.798 284)">to cloud</text><path d="M791.5 317.9C791.5 306.634 800.633 297.5 811.9 297.5L1169.1 297.5C1180.37 297.5 1189.5 306.634 1189.5 317.9L1189.5 481.1C1189.5 492.367 1180.37 501.5 1169.1 501.5L811.9 501.5C800.633 501.5 791.5 492.367 791.5 481.1Z" stroke="#4472C4" stroke-width="1.33333" stroke-miterlimit="8" fill="#FFFFFF" fill-rule="evenodd" fill-opacity="0.901961"/><text font-family="Calibri,Calibri_MSFontService,sans-serif" font-weight="400" font-size="20" transform="translate(808.415 331)">•</text><text font-family="Calibri,Calibri_MSFontService,sans-serif" font-weight="400" font-size="20" transform="translate(820.415 331)">Install required components (IoT Edge</text><text font-family="Calibri,Calibri_MSFontService,sans-serif" font-weight="400" font-size="20" transform="translate(820.415 353)">Runtime)</text><text font-family="Calibri,Calibri_MSFontService,sans-serif" font-weight="400" font-size="20" transform="translate(808.415 378)">•</text><text font-family="Calibri,Calibri_MSFontService,sans-serif" font-weight="400" font-size="20" transform="translate(820.415 378)">Register &amp; Connect IoT Edge device to IoT</text><text font-family="Calibri,Calibri_MSFontService,sans-serif" font-weight="400" font-size="20" transform="translate(820.415 400)">Hub</text><text font-family="Calibri,Calibri_MSFontService,sans-serif" font-weight="400" font-size="20" transform="translate(808.415 426)">•</text><text font-family="Calibri,Calibri_MSFontService,sans-serif" font-weight="400" font-size="20" transform="translate(820.415 426)">Deploy IoT Edge modules to the edge</text><g clip-path="url(#clip1)"><g clip-path="url(#clip2)"><g clip-path="url(#clip3)"><path d="M796.387 167.7C795.062 167.066 793.54 166.4 791.967 165.784 793.716 162.844 799.293 152 794.713 140L796 140C796.552 140 797 139.552 797 139 797 138.448 796.552 138 796 138L793.482 138 793.482 136.317 793.482 136.254C793.143 130.561 789.866 125.455 784.832 122.774L784.262 122.468C783.703 120.423 781.847 119.004 779.727 119L774.292 119C772.159 119.003 770.294 120.439 769.746 122.5L769.229 122.777C764.195 125.458 760.918 130.564 760.579 136.257L760.579 136.32 760.579 138 758 138C757.448 138 757 138.448 757 139 757 139.552 757.448 140 758 140L759.3 140C754.723 151.992 760.285 162.833 762.036 165.78 760.824 166.254 759.707 166.734 758.644 167.218L758.124 167.452C755.333 168.696 752.719 170.305 750.353 172.239 748.32 173.91 747.099 176.37 747 179L747 196.033 747.445 196.333C752.114 199.443 764.77 201 777.321 201 789.921 201 802.421 199.431 806.591 196.3L806.991 196 806.991 178.979C806.888 176.356 805.668 173.903 803.639 172.238 801.424 170.423 798.987 168.898 796.387 167.7ZM762.575 136.38C762.89 131.383 765.764 126.904 770.175 124.536L771.575 130.264C771.673 130.669 772.036 130.954 772.453 130.952L772.7 130.952C772.717 130.949 772.734 130.945 772.751 130.94 773.233 130.809 773.518 130.312 773.388 129.83L771.668 123.053C771.97 121.849 773.051 121.004 774.292 121L779.72 121C780.961 121.004 782.042 121.85 782.344 123.054L780.625 129.83C780.62 129.847 780.616 129.864 780.613 129.881 780.508 130.367 780.818 130.846 781.304 130.95 781.307 130.951 781.31 130.951 781.313 130.952L781.557 130.952C781.974 130.954 782.337 130.669 782.435 130.264L783.883 124.536C788.294 126.904 791.168 131.383 791.483 136.38L791.483 138 762.575 138ZM780.005 191 796.839 191 797.005 192.077 797.005 197.542C791.386 198.48 785.702 198.973 780.005 199.016ZM789.363 166.942 793.4 168.616 796.532 189 780.005 189 780.005 183.2 787.205 166.044ZM757.005 192.078 757.174 191 774.005 191 774.005 199C768.307 198.923 762.623 198.404 757.005 197.448ZM764.955 166.793 766.803 166.036 774.003 183.201 774.003 189 757.487 189 760.693 168.538 764.193 167.105ZM779.731 140.158C783.391 142.231 786.831 144.669 790 147.436 789.766 154.612 783.758 160.239 776.583 160.005 769.895 159.786 764.466 154.527 764.034 147.85 766.969 147.339 776.208 145.358 779.731 140.158ZM768.577 165.1C769.477 164.342 769.995 163.225 769.994 162.048L769.994 160.252C774.372 162.581 779.62 162.583 784 160.258L784 162.045C783.998 163.228 784.521 164.35 785.429 165.109L784.638 166.993C779.639 168.334 774.374 168.334 769.375 166.993ZM790.065 165.071 787.24 163.9C786.487 163.593 785.996 162.859 786 162.045L786 158.974C789.773 156.15 791.997 151.713 792 147 792 146.725 791.887 146.462 791.687 146.273 789.133 143.916 786.354 141.815 783.39 140L792.551 140C797.549 152 791.369 162.971 790.065 165.068ZM761.456 140 777.307 140C773.082 144.572 762.981 146 762.868 146.01 762.372 146.076 762.001 146.499 762 147 762.004 151.709 764.224 156.141 767.992 158.965L767.992 162.045C767.994 162.857 767.503 163.588 766.752 163.895L763.93 165.052C762.607 162.919 756.469 151.97 761.456 140ZM749 179.021C749.079 176.967 750.044 175.049 751.647 173.762 753.747 172.046 756.058 170.606 758.523 169.477L755.023 191.845 755.013 197.03C752.92 196.622 750.896 195.919 749 194.942ZM776.005 199.03 776.005 182.8 770.348 169.318C774.739 170.229 779.271 170.229 783.662 169.318L778.005 182.8 778.005 199.036C777.335 199.038 776.668 199.036 776.005 199.03ZM804.991 194.974C803.125 196.013 801.104 196.743 799.005 197.136L799.005 192 795.558 169.521C797.99 170.642 800.27 172.067 802.344 173.762 803.942 175.044 804.907 176.954 804.991 179Z"/></g></g></g><g clip-path="url(#clip4)"><g clip-path="url(#clip5)"><g clip-path="url(#clip6)"><path d="M129.618 152.72C133.926 154.266 138.003 156.028 141.378 158.789 142.995 160.05 143.956 161.973 143.995 164.023L145.751 178.417C145.893 179.505 145.414 180.581 144.512 181.204 142.792 182.316 140.942 183.213 139.004 183.876L139.004 185.985C141.338 185.236 143.565 184.186 145.628 182.863 147.154 181.822 147.968 180.014 147.737 178.182L145.994 163.93C145.93 161.306 144.695 158.847 142.628 157.229 139.001 154.261 134.693 152.412 130.163 150.793L125.241 148.773C124.489 148.467 123.998 147.735 124 146.923L124 143.975C127.774 141.152 129.998 136.716 130.002 132.002L130.002 129.104C130.52 129.317 131.073 129.433 131.633 129.445 132.185 129.445 132.633 128.997 132.633 128.445 132.633 128.337 132.616 128.231 132.582 128.129L131.569 125.089C131.127 123.701 130.773 122.287 130.51 120.855 129.524 116.02 126.343 111.919 121.906 109.761 121.194 109.39 120.334 109.454 119.684 109.925L119.382 109.477C118.973 108.844 118.325 108.403 117.586 108.255 109.845 106.8 102.381 111.714 99.8373 119.498 99.4015 120.855 99.1788 122.272 99.1773 123.698L99.168 125.192C99.1609 126.591 98.8727 127.973 98.3203 129.258L96.4579 133.606C96.2403 134.114 96.4754 134.702 96.983 134.919 97.1075 134.973 97.2415 135 97.3769 135 97.4548 135 97.5325 134.991 97.6083 134.973 97.7755 134.933 98.7268 134.703 100.185 134.289 100.786 138.15 102.871 141.623 105.995 143.969L105.995 146.923C105.997 147.735 105.506 148.467 104.754 148.773L99.799 150.807C95.2828 152.423 90.9913 154.267 87.3876 157.215 85.3121 158.835 84.0711 161.298 84.0053 163.93L82.2626 178.189C82.0342 180.02 82.8491 181.824 84.3735 182.864 86.4391 184.187 88.6677 185.237 91.0035 185.987L91.0035 183.878C89.0634 183.215 87.2116 182.317 85.4894 181.204 84.5883 180.583 84.1096 179.51 84.2487 178.424L85.9962 164.124 86.0035 164.024C86.0439 161.967 87.0117 160.039 88.6368 158.777 91.9976 156.027 96.0699 154.268 100.377 152.723L102.457 151.993C105.162 153.859 109.89 155.003 115 155.003 120.108 155.003 124.836 153.859 127.541 151.993ZM100.159 130.046C100.817 128.517 101.16 126.87 101.169 125.205L101.178 123.711C101.178 122.492 101.367 121.28 101.739 120.119 103.716 114.066 108.999 110 114.884 110 115.667 110.001 116.448 110.075 117.217 110.221 117.428 110.274 117.61 110.408 117.724 110.594L118.616 111.918C118.924 112.376 119.546 112.497 120.004 112.189 120.019 112.179 120.034 112.168 120.049 112.157L120.854 111.548C120.886 111.521 120.93 111.513 120.97 111.528 124.886 113.389 127.695 116.989 128.547 121.24L128.548 121.24C128.827 122.756 129.202 124.253 129.671 125.721L130.081 126.95C127.965 125.752 125.474 122.636 124.141 120.51 123.967 120.233 123.67 120.059 123.344 120.042 123.018 120.023 122.703 120.167 122.504 120.427 117.501 126.858 104.143 131.095 99.1044 132.507ZM102.129 133.713C108.01 131.905 118.103 128.181 123.196 122.695 124.532 124.674 126.151 126.447 128.002 127.955L128.002 132.002C128.007 139.178 122.193 144.999 115.017 145.003 108.497 145.007 102.983 140.177 102.129 133.713ZM115.001 153.002C111.452 153.09 107.928 152.394 104.679 150.965L105.513 150.623C107.017 150.01 107.998 148.547 107.995 146.923L107.995 145.245C112.369 147.583 117.621 147.589 122 145.26L122 146.923C121.996 148.547 122.978 150.01 124.481 150.623L125.318 150.967C122.07 152.395 118.548 153.09 115.001 153.002Z"/><path d="M137.004 164.54C136.998 162.579 135.405 160.995 133.444 161 133.441 161 133.437 161 133.434 161L96.544 161C94.5898 161.002 93.0061 162.586 93.004 164.54L93.004 187.19 86.004 187.19 86.004 189.464C86.0171 191.413 87.5949 192.989 89.5439 193L140.468 193C142.417 192.987 143.993 191.409 144.004 189.46L144.004 187.19 137.004 187.19ZM142.004 189.19 142.004 189.456C141.999 190.305 141.313 190.993 140.464 191L89.5478 191C88.6988 190.995 88.0112 190.309 88.0038 189.46L88.0038 189.19 95.0038 189.19 95.0038 164.54C95.0048 163.69 95.6937 163.001 96.5438 163L133.464 163C134.314 163.001 135.003 163.69 135.004 164.54L135.004 189.19Z"/><path d="M108.416 171.03 102.806 176.64 108.416 182.25 109.826 180.84 105.636 176.64 109.826 172.44 108.416 171.03Z"/><path d="M120.146 172.44 124.336 176.64 120.146 180.84 121.556 182.25 127.166 176.64 121.556 171.03 120.146 172.44Z"/><path d="M111.706 182.18 113.556 182.95 118.236 171.63 116.396 170.86 111.706 182.18Z"/></g></g></g><text font-family="Calibri,Calibri_MSFontService,sans-serif" font-weight="400" font-size="24" transform="translate(172.267 154)">Create Edge</text><text font-family="Calibri,Calibri_MSFontService,sans-serif" font-weight="400" font-size="24" transform="translate(172.267 183)">VM</text><text font-family="Calibri,Calibri_MSFontService,sans-serif" font-weight="400" font-size="24" transform="translate(822.198 166)">Provisioning</text><g clip-path="url(#clip7)"><g clip-path="url(#clip8)"><g clip-path="url(#clip9)"><path d="M794 583.994 794 548 736 548 736 584.01ZM738 550 792 550 792 581.993 738 582.01Z"/><path d="M733 547C733 545.895 733.895 545 735 545L795 545C796.105 545 797 545.895 797 547L797 588.013 799 588.013 799 547C799 544.791 797.209 543 795 543L735 543C732.791 543 731 544.791 731 547L731 588.013 733 588.013Z"/><path d="M770 590.994 770 592.994 760 592.994 760 590.994 719 590.994 719 592.994C719.003 595.754 721.24 597.991 724 597.994L806 597.994C808.76 597.991 810.997 595.754 811 592.994L811 590.994ZM806 595.994 724 595.994C722.343 595.994 721 594.651 721 592.994L758 592.994C757.964 594.062 758.8 594.958 759.868 594.994 759.912 594.995 759.956 594.995 760 594.994L770 594.994C771.068 595.031 771.964 594.194 772 593.126 772.002 593.082 772.002 593.038 772 592.994L809 592.994C809 594.651 807.657 595.994 806 595.994Z"/></g></g></g><rect x="840.5" y="536.5" width="322" height="64" stroke="#2F528F" stroke-width="1.33333" stroke-miterlimit="8" fill="#4472C4"/><text fill="#FFFFFF" font-family="Calibri,Calibri_MSFontService,sans-serif" font-weight="400" font-size="24" transform="translate(856.778 561)">Bootstrap script can run on in</text><text fill="#FFFFFF" font-family="Calibri,Calibri_MSFontService,sans-serif" font-weight="400" font-size="24" transform="translate(913.931 590)">VM or Physical PC</text><rect x="628.5" y="110.5" width="580" height="525" stroke="#2F528F" stroke-width="1.33333" stroke-miterlimit="8" fill="#D0CECE" fill-opacity="0.709804"/></g></svg>