<svg width="1280" height="720" xmlns="http://www.w3.org/2000/svg" xmlns:xlink="http://www.w3.org/1999/xlink" overflow="hidden"><defs><clipPath id="clip0"><rect x="0" y="0" width="1280" height="720"/></clipPath><clipPath id="clip1"><rect x="780" y="171" width="96" height="96"/></clipPath><clipPath id="clip2"><rect x="780" y="171" width="96" height="96"/></clipPath><clipPath id="clip3"><rect x="780" y="171" width="96" height="96"/></clipPath><clipPath id="clip4"><rect x="117" y="156" width="96" height="96"/></clipPath><clipPath id="clip5"><rect x="117" y="156" width="96" height="96"/></clipPath><clipPath id="clip6"><rect x="117" y="156" width="96" height="96"/></clipPath></defs><g clip-path="url(#clip0)"><rect x="0" y="0" width="1280" height="720" fill="#FFFFFF"/><path d="M359.5 226.5 773.5 226.5 773.5 218.5 789.5 234.5 773.5 250.5 773.5 242.5 359.5 242.5Z" stroke="#2F528F" stroke-width="1.33333" stroke-miterlimit="8" fill="#4472C4" fill-rule="evenodd"/><path d="M122.5 298.6C122.5 293.574 126.574 289.5 131.6 289.5L511.4 289.5C516.426 289.5 520.5 293.574 520.5 298.6L520.5 371.4C520.5 376.426 516.426 380.5 511.4 380.5L131.6 380.5C126.574 380.5 122.5 376.426 122.5 371.4Z" stroke="#FFFFFF" stroke-width="1.33333" stroke-miterlimit="8" fill="#4472C4" fill-rule="evenodd"/><text fill="#FFFFFF" font-family="Calibri,Calibri_MSFontService,sans-serif" font-weight="400" font-size="19" transform="translate(132.663 315)">Preparation for Robot deployer</text><path d="M199.5 376.5C199.5 364.35 209.35 354.5 221.5 354.5L574.501 354.5C586.651 354.5 596.5 364.35 596.5 376.5L596.5 552.494C596.5 564.644 586.651 574.494 574.5 574.494L221.5 574.494C209.35 574.494 199.5 564.644 199.5 552.494Z" stroke="#4472C4" stroke-width="1.33333" stroke-miterlimit="8" fill="#FFFFFF" fill-rule="evenodd" fill-opacity="0.901961"/><text font-family="Calibri,Calibri_MSFontService,sans-serif" font-weight="400" font-size="19" transform="translate(215.908 386)">•</text><text font-family="Calibri,Calibri_MSFontService,sans-serif" font-weight="400" font-size="19" transform="translate(227.908 386)">Manual set up IoT Hub</text><text font-family="Calibri,Calibri_MSFontService,sans-serif" font-weight="400" font-size="19" transform="translate(215.908 410)">•</text><text font-family="Calibri,Calibri_MSFontService,sans-serif" font-weight="400" font-size="19" transform="translate(227.908 410)">Prepare X509 certs and upload to Key</text><text font-family="Calibri,Calibri_MSFontService,sans-serif" font-weight="400" font-size="19" transform="translate(511.954 410)">-</text><text font-family="Calibri,Calibri_MSFontService,sans-serif" font-weight="400" font-size="19" transform="translate(517.668 410)">Vault</text><text font-family="Calibri,Calibri_MSFontService,sans-serif" font-weight="400" font-size="19" transform="translate(215.908 434)">•</text><text font-family="Calibri,Calibri_MSFontService,sans-serif" font-weight="400" font-size="19" transform="translate(227.908 434)">Prepare deployment manifest</text><text font-family="Calibri,Calibri_MSFontService,sans-serif" font-weight="400" font-size="19" transform="translate(215.908 458)">•</text><text font-family="Calibri,Calibri_MSFontService,sans-serif" font-weight="400" font-size="19" transform="translate(227.908 458)">Update environment file with required env</text><text font-family="Calibri,Calibri_MSFontService,sans-serif" font-weight="400" font-size="19" transform="translate(551.421 458)">-</text><text font-family="Calibri,Calibri_MSFontService,sans-serif" font-weight="400" font-size="19" transform="translate(227.908 479)">variables</text><text font-family="Calibri,Calibri_MSFontService,sans-serif" font-weight="400" font-size="19" transform="translate(215.908 503)">•</text><text font-family="Calibri,Calibri_MSFontService,sans-serif" font-weight="400" font-size="19" transform="translate(227.908 503)">Prepare SSH key pair (for edge VM creation)</text><text font-family="Calibri,Calibri_MSFontService,sans-serif" font-weight="400" font-size="19" transform="translate(215.908 527)">•</text><text font-family="Calibri,Calibri_MSFontService,sans-serif" font-weight="400" font-size="19" transform="translate(227.908 527)">Create Edge device VM</text><path d="M579.727 289.147 657.966 288.942 657.915 269.156 707.509 318.492 658.173 368.086 658.121 348.3 579.882 348.505Z" fill="#B0BCDE" fill-rule="evenodd"/><path d="M761.5 297.5C761.5 292.529 765.529 288.5 770.5 288.5L1149.5 288.5C1154.47 288.5 1158.5 292.529 1158.5 297.5L1158.5 369.5C1158.5 374.471 1154.47 378.5 1149.5 378.5L770.5 378.5C765.529 378.5 761.5 374.471 761.5 369.5Z" stroke="#FFFFFF" stroke-width="1.33333" stroke-miterlimit="8" fill="#4472C4" fill-rule="evenodd"/><text fill="#FFFFFF" font-family="Calibri,Calibri_MSFontService,sans-serif" font-weight="400" font-size="19" transform="translate(770.971 313)">Provisioning: Setup and Register Edge PC to cloud</text><text fill="#FFFFFF" font-family="Calibri,Calibri_MSFontService,sans-serif" font-weight="400" font-size="19" transform="translate(770.971 334)">=&gt; Start IoT Edge module automatically</text><path d="M836.5 378.1C836.5 365.618 846.618 355.5 859.1 355.5L1211.9 355.5C1224.38 355.5 1234.5 365.618 1234.5 378.1L1234.5 558.9C1234.5 571.382 1224.38 581.5 1211.9 581.5L859.1 581.5C846.618 581.5 836.5 571.382 836.5 558.9Z" stroke="#4472C4" stroke-width="1.33333" stroke-miterlimit="8" fill="#FFFFFF" fill-rule="evenodd" fill-opacity="0.901961"/><text font-family="Calibri,Calibri_MSFontService,sans-serif" font-weight="400" font-size="19" transform="translate(853.497 387)">•</text><text font-family="Calibri,Calibri_MSFontService,sans-serif" font-weight="400" font-size="19" transform="translate(865.497 387)">Install required components (IoT Edge</text><text font-family="Calibri,Calibri_MSFontService,sans-serif" font-weight="400" font-size="19" transform="translate(865.497 408)">Runtime)</text><text font-family="Calibri,Calibri_MSFontService,sans-serif" font-weight="400" font-size="19" transform="translate(853.497 432)">•</text><text font-family="Calibri,Calibri_MSFontService,sans-serif" font-weight="400" font-size="19" transform="translate(865.497 432)">Register &amp; Connect IoT Edge device to IoT Hub</text><text font-family="Calibri,Calibri_MSFontService,sans-serif" font-weight="400" font-size="19" transform="translate(853.497 456)">•</text><text font-family="Calibri,Calibri_MSFontService,sans-serif" font-weight="400" font-size="19" transform="translate(865.497 456)">Securely connect IoT Edge to IoT Hub</text><text font-family="Calibri,Calibri_MSFontService,sans-serif" font-weight="400" font-size="19" transform="translate(865.497 480)">•</text><text font-family="Calibri,Calibri_MSFontService,sans-serif" font-weight="400" font-size="19" transform="translate(877.497 480)">Operator sign</text><text font-family="Calibri,Calibri_MSFontService,sans-serif" font-weight="400" font-size="19" transform="translate(980.671 480)">-</text><text font-family="Calibri,Calibri_MSFontService,sans-serif" font-weight="400" font-size="19" transform="translate(986.384 480)">in Azure account</text><text font-family="Calibri,Calibri_MSFontService,sans-serif" font-weight="400" font-size="19" transform="translate(853.497 504)">•</text><text font-family="Calibri,Calibri_MSFontService,sans-serif" font-weight="400" font-size="19" transform="translate(865.497 504)">Deploy IoT Edge modules to edge</text><g clip-path="url(#clip1)"><g clip-path="url(#clip2)"><g clip-path="url(#clip3)"><path d="M847.387 224.7C846.062 224.066 844.54 223.4 842.967 222.784 844.716 219.844 850.293 209 845.713 197L847 197C847.552 197 848 196.552 848 196 848 195.448 847.552 195 847 195L844.482 195 844.482 193.317 844.482 193.254C844.143 187.561 840.866 182.455 835.832 179.774L835.262 179.468C834.703 177.423 832.847 176.004 830.727 176L825.292 176C823.159 176.003 821.294 177.439 820.746 179.5L820.229 179.777C815.195 182.458 811.918 187.564 811.579 193.257L811.579 193.32 811.579 195 809 195C808.448 195 808 195.448 808 196 808 196.552 808.448 197 809 197L810.3 197C805.723 208.992 811.285 219.833 813.036 222.78 811.824 223.254 810.707 223.734 809.644 224.218L809.124 224.452C806.333 225.696 803.719 227.305 801.353 229.239 799.32 230.91 798.099 233.37 798 236L798 253.033 798.445 253.333C803.114 256.443 815.77 258 828.321 258 840.921 258 853.421 256.431 857.591 253.3L857.991 253 857.991 235.979C857.888 233.356 856.668 230.903 854.639 229.238 852.424 227.423 849.987 225.898 847.387 224.7ZM813.575 193.38C813.89 188.383 816.764 183.904 821.175 181.536L822.575 187.264C822.673 187.669 823.036 187.954 823.453 187.952L823.7 187.952C823.717 187.949 823.734 187.945 823.751 187.94 824.233 187.809 824.518 187.312 824.388 186.83L822.668 180.053C822.97 178.849 824.051 178.004 825.292 178L830.72 178C831.961 178.004 833.042 178.85 833.344 180.054L831.625 186.83C831.62 186.847 831.616 186.864 831.613 186.881 831.508 187.367 831.818 187.846 832.304 187.95 832.307 187.951 832.31 187.951 832.313 187.952L832.557 187.952C832.974 187.954 833.337 187.669 833.435 187.264L834.883 181.536C839.294 183.904 842.168 188.383 842.483 193.38L842.483 195 813.575 195ZM831.005 248 847.839 248 848.005 249.077 848.005 254.542C842.386 255.48 836.702 255.973 831.005 256.016ZM840.363 223.942 844.4 225.616 847.532 246 831.005 246 831.005 240.2 838.205 223.044ZM808.005 249.078 808.174 248 825.005 248 825.005 256C819.307 255.923 813.623 255.404 808.005 254.448ZM815.955 223.793 817.803 223.036 825.003 240.201 825.003 246 808.487 246 811.693 225.538 815.193 224.105ZM830.731 197.158C834.391 199.231 837.831 201.669 841 204.436 840.766 211.612 834.758 217.239 827.583 217.005 820.895 216.786 815.466 211.527 815.034 204.85 817.969 204.339 827.208 202.358 830.731 197.158ZM819.577 222.1C820.477 221.342 820.995 220.225 820.994 219.048L820.994 217.252C825.372 219.581 830.62 219.583 835 217.258L835 219.045C834.998 220.228 835.521 221.35 836.429 222.109L835.638 223.993C830.639 225.334 825.374 225.334 820.375 223.993ZM841.065 222.071 838.24 220.9C837.487 220.593 836.996 219.859 837 219.045L837 215.974C840.773 213.15 842.997 208.713 843 204 843 203.725 842.887 203.462 842.687 203.273 840.133 200.916 837.354 198.815 834.39 197L843.551 197C848.549 209 842.369 219.971 841.065 222.068ZM812.456 197 828.307 197C824.082 201.572 813.981 203 813.868 203.01 813.372 203.076 813.001 203.499 813 204 813.004 208.709 815.224 213.141 818.992 215.965L818.992 219.045C818.994 219.857 818.503 220.588 817.752 220.895L814.93 222.052C813.607 219.919 807.469 208.97 812.456 197ZM800 236.021C800.079 233.967 801.044 232.049 802.647 230.762 804.747 229.046 807.058 227.606 809.523 226.477L806.023 248.845 806.013 254.03C803.92 253.622 801.896 252.919 800 251.942ZM827.005 256.03 827.005 239.8 821.348 226.318C825.739 227.229 830.271 227.229 834.662 226.318L829.005 239.8 829.005 256.036C828.335 256.038 827.668 256.036 827.005 256.03ZM855.991 251.974C854.125 253.013 852.104 253.743 850.005 254.136L850.005 249 846.558 226.521C848.99 227.642 851.27 229.067 853.344 230.762 854.942 232.044 855.907 233.954 855.991 236Z"/></g></g></g><g clip-path="url(#clip4)"><g clip-path="url(#clip5)"><g clip-path="url(#clip6)"><path d="M179.618 209.72C183.926 211.266 188.003 213.028 191.378 215.789 192.995 217.05 193.956 218.973 193.995 221.023L195.751 235.417C195.893 236.505 195.414 237.581 194.512 238.204 192.792 239.316 190.942 240.213 189.004 240.876L189.004 242.985C191.338 242.236 193.565 241.186 195.628 239.863 197.154 238.822 197.968 237.014 197.737 235.182L195.994 220.93C195.93 218.306 194.695 215.847 192.628 214.229 189.001 211.261 184.693 209.412 180.163 207.793L175.241 205.773C174.489 205.467 173.998 204.735 174 203.923L174 200.975C177.774 198.152 179.998 193.716 180.002 189.002L180.002 186.104C180.52 186.317 181.073 186.433 181.633 186.445 182.185 186.445 182.633 185.997 182.633 185.445 182.633 185.337 182.616 185.231 182.582 185.129L181.569 182.089C181.127 180.701 180.773 179.287 180.51 177.855 179.524 173.02 176.344 168.919 171.906 166.761 171.194 166.39 170.334 166.454 169.684 166.925L169.383 166.477C168.973 165.844 168.325 165.403 167.586 165.255 159.845 163.8 152.381 168.714 149.837 176.498 149.402 177.855 149.179 179.272 149.177 180.698L149.168 182.192C149.161 183.591 148.873 184.973 148.32 186.258L146.458 190.606C146.24 191.114 146.475 191.702 146.983 191.919 147.107 191.973 147.242 192 147.377 192 147.455 192 147.533 191.991 147.608 191.973 147.775 191.933 148.727 191.703 150.185 191.289 150.786 195.15 152.871 198.623 155.995 200.969L155.995 203.923C155.997 204.735 155.506 205.467 154.754 205.773L149.799 207.807C145.283 209.423 140.991 211.267 137.388 214.215 135.312 215.835 134.071 218.298 134.005 220.93L132.263 235.189C132.034 237.02 132.849 238.824 134.374 239.864 136.439 241.187 138.668 242.237 141.003 242.987L141.003 240.878C139.063 240.215 137.212 239.317 135.489 238.204 134.588 237.583 134.11 236.51 134.249 235.424L135.996 221.124 136.003 221.024C136.044 218.967 137.012 217.039 138.637 215.777 141.998 213.027 146.07 211.268 150.377 209.723L152.457 208.993C155.162 210.859 159.89 212.003 165 212.003 170.108 212.003 174.836 210.859 177.541 208.993ZM150.159 187.046C150.817 185.517 151.16 183.87 151.169 182.205L151.178 180.711C151.178 179.492 151.367 178.28 151.739 177.119 153.716 171.066 158.999 167 164.884 167 165.667 167.001 166.448 167.075 167.217 167.221 167.428 167.274 167.61 167.408 167.724 167.594L168.616 168.918C168.924 169.376 169.546 169.497 170.004 169.189 170.019 169.179 170.034 169.168 170.049 169.157L170.854 168.548C170.886 168.521 170.93 168.513 170.97 168.528 174.886 170.389 177.695 173.989 178.547 178.24L178.548 178.24C178.827 179.756 179.202 181.253 179.671 182.721L180.081 183.95C177.965 182.752 175.474 179.636 174.141 177.51 173.967 177.233 173.67 177.059 173.344 177.042 173.018 177.023 172.703 177.167 172.504 177.427 167.501 183.858 154.143 188.095 149.104 189.507ZM152.129 190.713C158.01 188.905 168.103 185.181 173.196 179.695 174.532 181.674 176.151 183.447 178.002 184.955L178.002 189.002C178.007 196.178 172.193 201.999 165.017 202.003 158.497 202.007 152.983 197.177 152.129 190.713ZM165.001 210.002C161.452 210.09 157.928 209.394 154.679 207.965L155.513 207.623C157.017 207.01 157.998 205.547 157.995 203.923L157.995 202.245C162.369 204.583 167.621 204.589 172 202.26L172 203.923C171.996 205.547 172.978 207.01 174.481 207.623L175.318 207.967C172.07 209.395 168.548 210.09 165.001 210.002Z"/><path d="M187.004 221.54C186.998 219.579 185.405 217.995 183.444 218 183.441 218 183.437 218 183.434 218L146.544 218C144.59 218.002 143.006 219.586 143.004 221.54L143.004 244.19 136.004 244.19 136.004 246.464C136.017 248.413 137.595 249.989 139.544 250L190.468 250C192.417 249.987 193.993 248.409 194.004 246.46L194.004 244.19 187.004 244.19ZM192.004 246.19 192.004 246.456C191.999 247.305 191.313 247.993 190.464 248L139.548 248C138.699 247.995 138.011 247.309 138.004 246.46L138.004 246.19 145.004 246.19 145.004 221.54C145.005 220.69 145.694 220.001 146.544 220L183.464 220C184.314 220.001 185.003 220.69 185.004 221.54L185.004 246.19Z"/><path d="M158.416 228.03 152.806 233.64 158.416 239.25 159.826 237.84 155.636 233.64 159.826 229.44 158.416 228.03Z"/><path d="M170.146 229.44 174.336 233.64 170.146 237.84 171.556 239.25 177.166 233.64 171.556 228.03 170.146 229.44Z"/><path d="M161.706 239.18 163.556 239.95 168.236 228.63 166.396 227.86 161.706 239.18Z"/></g></g></g><text font-family="Calibri,Calibri_MSFontService,sans-serif" font-weight="400" font-size="24" transform="translate(222.933 212)">Create edge</text><text font-family="Calibri,Calibri_MSFontService,sans-serif" font-weight="400" font-size="24" transform="translate(222.933 241)">VM</text><text font-family="Calibri,Calibri_MSFontService,sans-serif" font-weight="400" font-size="24" transform="translate(872.864 223)">Provisioning</text><rect x="876.5" y="529.5" width="321" height="40" stroke="#2F528F" stroke-width="1.33333" stroke-miterlimit="8" fill="#4472C4"/><text fill="#FFFFFF" font-family="Calibri,Calibri_MSFontService,sans-serif" font-weight="400" font-size="19" transform="translate(898.731 543)">Bootstrap script can run on in VM or</text><text fill="#FFFFFF" font-family="Calibri,Calibri_MSFontService,sans-serif" font-weight="400" font-size="19" transform="translate(994.404 566)">Physical PC</text><rect x="103.5" y="138.5" width="621" height="493" stroke="#2F528F" stroke-width="1.33333" stroke-miterlimit="8" fill="#D0CECE" fill-opacity="0.709804"/><rect x="792" y="162" width="235" height="113" stroke="#FF0000" stroke-width="8" stroke-miterlimit="8" fill="none"/></g></svg>